FILE files/longer_one.mp3 WAVE
PERFORMER "Artist One"
TITLE "Artist One Album"
  TRACK 01 AUDIO
    TITLE "A1Song1"
    INDEX 01 00:01:00
  TRACK 02 AUDIO
    TITLE "A1Song2"
    INDEX 01 05:03:68
FILE files/longer_two_p1.mp3 WAVE
PERFORMER "Artist Two"
TITLE "Artist Two Album"
  TRACK 01 AUDIO
    TITLE "A2P1Song1"
    PERFORMER "Artist X"
    INDEX 01 00:00:12
  TRACK 02 AUDIO
    TITLE "A2P1Song2"
    INDEX 01 04:00:13
FILE files/longer_two_p2.mp3 WAVE
PERFORMER "Artist Two"
TITLE "Artist Two Album"
  TRACK 01 AUDIO
    TITLE "A2P2Song1"
    INDEX 01 00:01:00
